<svg width="144" height="144" viewBox="0 0 144 144" fill="none" xmlns="http://www.w3.org/2000/svg">
<path d="M74.6695 16.7525C74.431 16.8507 74.0381 17.1594 73.7996 17.44C73.0419 18.2959 73.0138 19.5166 73.7154 20.3445C74.2205 20.9478 74.6555 21.1443 75.792 21.2565C78.514 21.5231 81.7833 22.4211 84.1826 23.5716C89.1215 25.9289 93.3589 30.0961 95.646 34.8526C96.9789 37.6448 97.6524 40.1845 97.905 43.4958C98.0874 45.7969 98.2838 46.3722 99.0695 46.8633C100.038 47.4526 101.09 47.3684 101.988 46.6107C102.605 46.0916 102.802 45.5023 102.802 44.2114C102.802 40.7597 101.735 36.2838 100.066 32.762C96.0248 24.175 87.9429 18.1837 78.5561 16.7666C76.8864 16.514 75.2308 16.5 74.6695 16.7525Z" fill="#0E3247"/>
<path d="M74.6696 26.7848C73.9961 27.0935 73.7015 27.4022 73.4068 28.1037C73.1262 28.7772 73.1402 29.114 73.491 29.8295C73.8698 30.6153 74.417 30.938 75.8622 31.2046C80.9555 32.1447 85.0947 35.2736 87.1573 39.7495C87.7606 41.0684 88.1535 42.4716 88.406 44.3237C88.5744 45.5444 88.6726 45.853 89.0094 46.274C89.6127 47.0036 90.2441 47.3123 91.0579 47.2421C91.8156 47.172 92.3347 46.8633 92.8258 46.1477C93.1345 45.6987 93.1485 45.5865 93.0784 44.0571C92.9521 41.4332 92.1243 38.7814 90.5808 36.0874C87.7887 31.2326 82.7655 27.6828 77.3495 26.7287C75.764 26.4621 75.3571 26.4621 74.6696 26.7848Z" fill="#0E3247"/>
<path d="M50.4239 38.1639C48.9787 38.6269 47.8702 39.6091 47.2108 41.0543L46.8881 41.7418V54.5803L46.8881 67.4187L47.3511 68.3588C47.9264 69.5234 49.0208 70.5757 50.1573 71.0107C50.943 71.3334 51.0413 71.3334 56.331 71.3053L61.6908 71.2773L61.6908 82.9932L61.6908 94.7092L60.8349 94.2883C59.6142 93.6709 57.1027 92.6466 55.2506 92.0293C45.2885 88.6758 35.5088 90.4157 26.543 97.1366C25.3082 98.0626 25.0557 98.3152 24.9154 98.7782C24.6909 99.5079 24.9575 100.209 25.673 100.799C26.7955 101.697 28.816 101.43 32.8991 99.8446C39.8585 97.1366 44.5308 96.6034 49.6381 97.9223C52.4163 98.6379 54.5771 99.6201 61.0875 103.072C70.2358 107.941 76.3112 110.284 82.5972 111.392C84.9965 111.813 86.8346 111.967 89.6267 111.967C93.5134 111.967 96.8387 111.434 100.487 110.214C106.085 108.361 110.168 105.864 113.985 101.991C116.117 99.8306 117.787 97.5575 118.952 95.2424C119.611 93.9375 119.639 93.4464 119.134 93.0395C118.559 92.5905 118.11 92.6747 117.17 93.3903C116.019 94.2883 113.129 96.1825 111.361 97.1927C106.183 100.167 101.357 101.977 96.2775 102.875C94.243 103.226 88.8129 103.366 86.2873 103.142C80.9976 102.651 74.4451 100.729 68.3275 97.8662L66.8823 97.1927L66.8823 84.3122L66.8823 71.4457L72.1159 71.3895C76.7041 71.3334 77.4197 71.3053 78.0511 71.0808C79.5805 70.5477 80.8152 69.2287 81.2923 67.6432C81.5027 66.9276 81.5308 65.735 81.5168 54.5101C81.5027 42.4013 81.5027 42.1487 81.2081 41.3349C80.6889 39.8336 79.5244 38.683 78.0511 38.1498C77.3074 37.8973 76.7743 37.8833 64.2585 37.8973C51.9673 37.8973 51.1956 37.9113 50.4239 38.1639ZM66.279 48.7153C68.6082 49.5852 70.1937 51.5075 70.5304 53.8927C70.797 55.7869 70.1376 57.6811 68.7204 59.0702C66.5175 61.217 63.3185 61.4836 60.7227 59.7577C58.141 58.0319 57.257 54.5662 58.7022 51.7179C59.4038 50.3429 61.2278 48.8977 62.7151 48.5469C63.6833 48.3084 65.4371 48.3926 66.279 48.7153Z" fill="#0E3247"/>
<path d="M40.083 105.162C36.9681 105.611 32.436 107.099 31.8467 107.884C31.7485 108.011 31.6643 108.333 31.6643 108.628C31.6643 109.021 31.7625 109.217 32.0712 109.484C32.422 109.779 32.7026 109.835 34.3863 109.989C39.9707 110.494 44.4466 112.178 52.29 116.738C58.2813 120.218 62.0416 122.042 66.1387 123.417C75.2589 126.476 84.2669 126.462 92.8258 123.389C96.0389 122.224 100.234 119.979 101.301 118.829C101.792 118.296 101.806 117.692 101.329 117.229C101.146 117.033 100.866 116.878 100.697 116.878C100.543 116.878 99.673 117.103 98.775 117.369C90.3564 119.923 81.9658 119.348 72.3124 115.559C68.8888 114.212 66.3351 113.034 60.7788 110.228C54.3385 106.972 51.7709 105.976 48.1228 105.303C46.439 104.98 41.8649 104.91 40.083 105.162Z" fill="#0E3247"/>
</svg>
